<svg width="24" height="25" viewBox="0 0 24 25" fill="none" xmlns="http://www.w3.org/2000/svg">
    <path d="M21.5319 1.46002L13.2744 8.35622L14.81 4.29206L21.5319 1.46002Z" fill="#E17726" stroke="#E17726"
          stroke-width="0.25" stroke-linecap="round" stroke-linejoin="round"/>
    <path d="M2.48535 1.46002L10.6693 8.42061L9.20731 4.29206L2.48535 1.46002Z" fill="#E27625" stroke="#E27625"
          stroke-width="0.25" stroke-linecap="round" stroke-linejoin="round"/>
    <path d="M18.5594 17.45L16.3623 21.2383L21.0669 22.7003L22.4145 17.5328L18.5594 17.45Z" fill="#E27625"
          stroke="#E27625" stroke-width="0.25" stroke-linecap="round" stroke-linejoin="round"/>
    <path d="M1.61133 17.5328L2.95081 22.7003L7.64721 21.2383L5.45827 17.45L1.61133 17.5328Z" fill="#E27625"
          stroke="#E27625" stroke-width="0.25" stroke-linecap="round" stroke-linejoin="round"/>
    <path d="M7.39371 11.0503L6.08691 13.2755L10.7424 13.5146L10.5873 7.85968L7.39371 11.0503Z" fill="#E27625"
          stroke="#E27625" stroke-width="0.25" stroke-linecap="round" stroke-linejoin="round"/>
    <path d="M16.6231 11.0504L13.3806 7.79535L13.2744 13.5146L17.9299 13.2755L16.6231 11.0504Z" fill="#E27625"
          stroke="#E27625" stroke-width="0.25" stroke-linecap="round" stroke-linejoin="round"/>
    <path d="M7.64746 21.2383L10.4652 19.7027L8.03952 17.5695L7.64746 21.2383Z" fill="#E27625" stroke="#E27625"
          stroke-width="0.25" stroke-linecap="round" stroke-linejoin="round"/>
    <path d="M13.5527 19.7027L16.3623 21.2383L15.9784 17.5695L13.5527 19.7027Z" fill="#E27625" stroke="#E27625"
          stroke-width="0.25" stroke-linecap="round" stroke-linejoin="round"/>
    <path d="M16.3623 21.2384L13.5527 19.7029L13.7814 21.7625L13.7569 22.6361L16.3623 21.2384Z" fill="#D5BFB2"
          stroke="#D5BFB2" stroke-width="0.25" stroke-linecap="round" stroke-linejoin="round"/>
    <path d="M7.64746 21.2384L10.2611 22.6361L10.2447 21.7625L10.4652 19.7029L7.64746 21.2384Z" fill="#D5BFB2"
          stroke="#D5BFB2" stroke-width="0.25" stroke-linecap="round" stroke-linejoin="round"/>
    <path d="M10.3096 16.2087L7.97363 15.4363L9.62346 14.5812L10.3096 16.2087Z" fill="#233447" stroke="#233447"
          stroke-width="0.25" stroke-linecap="round" stroke-linejoin="round"/>
    <path d="M13.708 16.2087L14.3941 14.5812L16.0522 15.4363L13.708 16.2087Z" fill="#233447" stroke="#233447"
          stroke-width="0.25" stroke-linecap="round" stroke-linejoin="round"/>
    <path d="M7.64691 21.2383L8.05532 17.45L5.45801 17.5328L7.64691 21.2383Z" fill="#CC6228" stroke="#CC6228"
          stroke-width="0.25" stroke-linecap="round" stroke-linejoin="round"/>
    <path d="M15.9619 17.45L16.3621 21.2383L18.5592 17.5328L15.9619 17.45Z" fill="#CC6228" stroke="#CC6228"
          stroke-width="0.25" stroke-linecap="round" stroke-linejoin="round"/>
    <path d="M17.9299 13.2755L13.2744 13.5145L13.7073 16.2087L14.3934 14.5811L16.0514 15.4363L17.9299 13.2755Z"
          fill="#CC6228" stroke="#CC6228" stroke-width="0.25" stroke-linecap="round" stroke-linejoin="round"/>
    <path d="M7.97362 15.4363L9.62345 14.5811L10.3096 16.2087L10.7424 13.5145L6.08691 13.2755L7.97362 15.4363Z"
          fill="#CC6228" stroke="#CC6228" stroke-width="0.25" stroke-linecap="round" stroke-linejoin="round"/>
    <path d="M6.08789 13.2755L8.03998 17.5695L7.9746 15.4363L6.08789 13.2755Z" fill="#E27525" stroke="#E27525"
          stroke-width="0.25" stroke-linecap="round" stroke-linejoin="round"/>
    <path d="M16.052 15.4363L15.9785 17.5695L17.9306 13.2755L16.052 15.4363Z" fill="#E27525" stroke="#E27525"
          stroke-width="0.25" stroke-linecap="round" stroke-linejoin="round"/>
    <path d="M10.7435 13.5145L10.3105 16.2087L10.8577 19.3901L10.9803 15.1972L10.7435 13.5145Z" fill="#E27525"
          stroke="#E27525" stroke-width="0.25" stroke-linecap="round" stroke-linejoin="round"/>
    <path d="M13.2746 13.5145L13.0459 15.188L13.1603 19.3901L13.7075 16.2087L13.2746 13.5145Z" fill="#E27525"
          stroke="#E27525" stroke-width="0.25" stroke-linecap="round" stroke-linejoin="round"/>
    <path d="M13.7074 16.2088L13.1602 19.3902L13.5522 19.7028L15.978 17.5696L16.0515 15.4363L13.7074 16.2088Z"
          fill="#F5841F" stroke="#F5841F" stroke-width="0.25" stroke-linecap="round" stroke-linejoin="round"/>
    <path d="M7.97363 15.4363L8.03902 17.5696L10.4647 19.7028L10.8568 19.3902L10.3096 16.2088L7.97363 15.4363Z"
          fill="#F5841F" stroke="#F5841F" stroke-width="0.25" stroke-linecap="round" stroke-linejoin="round"/>
    <path d="M13.7568 22.636L13.7813 21.7625L13.5689 21.5602H10.4489L10.2447 21.7625L10.2611 22.636L7.64746 21.2383L8.5622 22.0843L10.4163 23.5279H13.5934L15.4557 22.0843L16.3622 21.2383L13.7568 22.636Z"
          fill="#C0AC9D" stroke="#C0AC9D" stroke-width="0.25" stroke-linecap="round" stroke-linejoin="round"/>
    <path d="M13.553 19.7028L13.1609 19.3902H10.8576L10.4656 19.7028L10.2451 21.7625L10.4493 21.5602H13.5693L13.7817 21.7625L13.553 19.7028Z"
          fill="#161616" stroke="#161616" stroke-width="0.25" stroke-linecap="round" stroke-linejoin="round"/>
    <path d="M21.8836 8.80676L22.5779 5.00009L21.5324 1.46002L13.5527 8.1264L16.6237 11.0503L20.9607 12.4756L21.9163 11.2159L21.4998 10.8756L22.1613 10.1953L21.655 9.75387L22.3165 9.18377L21.8836 8.80676Z"
          fill="#763E1A" stroke="#763E1A" stroke-width="0.25" stroke-linecap="round" stroke-linejoin="round"/>
    <path d="M1.44043 5.00009L2.14284 8.80676L1.69363 9.18377L2.36337 9.75387L1.85698 10.1953L2.51855 10.8756L2.102 11.2159L3.05761 12.4756L7.39462 11.0503L10.4656 8.1264L2.48588 1.46002L1.44043 5.00009Z"
          fill="#763E1A" stroke="#763E1A" stroke-width="0.25" stroke-linecap="round" stroke-linejoin="round"/>
    <path d="M20.9607 12.4755L16.6238 11.0504L17.9306 13.2755L15.9785 17.5695L18.5595 17.5328H22.4146L20.9607 12.4755Z"
          fill="#F5841F" stroke="#F5841F" stroke-width="0.25" stroke-linecap="round" stroke-linejoin="round"/>
    <path d="M7.39397 11.0504L3.05699 12.4755L1.61133 17.5328H5.45827L8.03919 17.5695L6.08717 13.2755L7.39397 11.0504Z"
          fill="#F5841F" stroke="#F5841F" stroke-width="0.25" stroke-linecap="round" stroke-linejoin="round"/>
    <path d="M13.2745 13.5146L13.5522 8.12633L14.81 4.29205H9.20703L10.4648 8.12633L10.7425 13.5146L10.8487 15.2065L10.8569 19.3902H13.1601L13.1683 15.2065L13.2745 13.5146Z"
          fill="#F5841F" stroke="#F5841F" stroke-width="0.25" stroke-linecap="round" stroke-linejoin="round"/>
</svg>
